<svg width="420" height="520" viewBox="0 0 420 520" fill="none" xmlns="http://www.w3.org/2000/svg">
  <defs>
    <linearGradient id="grad" x1="60" y1="40" x2="360" y2="440" gradientUnits="userSpaceOnUse">
      <stop offset="0" stop-color="#33ACF5"/>
      <stop offset="1" stop-color="#141414"/>
    </linearGradient>
    <radialGradient id="highlight" cx="0" cy="0" r="1" gradientUnits="userSpaceOnUse" gradientTransform="translate(220 180) rotate(45) scale(200 200)">
      <stop offset="0" stop-color="#FFFFFF" stop-opacity="0.85"/>
      <stop offset="1" stop-color="#FFFFFF" stop-opacity="0"/>
    </radialGradient>
  </defs>
  <rect x="10" y="10" width="400" height="500" rx="32" fill="#EDEEF0"/>
  <rect x="28" y="28" width="364" height="464" rx="28" fill="#3D3D3D"/>
  <rect x="28" y="28" width="364" height="464" rx="28" fill="url(#grad)"/>
  <circle cx="220" cy="220" r="140" fill="#2D2D2D" opacity="0.45"/>
  <ellipse cx="210" cy="220" rx="110" ry="140" fill="url(#highlight)"/>
  <rect x="88" y="330" width="244" height="96" rx="48" fill="rgba(249,249,249,0.78)"/>
  <path d="M164 360C164 346.745 174.745 336 188 336H232C245.255 336 256 346.745 256 360C256 373.255 245.255 384 232 384H188C174.745 384 164 373.255 164 360Z" fill="#FFFFFF" opacity="0.85"/>
  <path d="M192 356H228" stroke="#2D2D2D" stroke-width="6" stroke-linecap="round"/>
</svg>
