<svg width="150" height="88" viewBox="0 0 150 88" fill="none" xmlns="http://www.w3.org/2000/svg">
  <defs>
    <radialGradient id="bg-glow" cx="0" cy="0" r="1" gradientUnits="userSpaceOnUse" gradientTransform="translate(75 44) scale(68 40)">
      <stop offset="0" stop-color="#1B1E3C" stop-opacity="0.95"/>
      <stop offset="1" stop-color="#040715" stop-opacity="0.9"/>
    </radialGradient>
    <radialGradient id="chip" cx="0" cy="0" r="1" gradientUnits="userSpaceOnUse" gradientTransform="translate(75 44) scale(48 33)">
      <stop offset="0" stop-color="#FF7CA9" stop-opacity="0.12"/>
      <stop offset="0.45" stop-color="#303467" stop-opacity="0.35"/>
      <stop offset="1" stop-color="#090B1B" stop-opacity="0.8"/>
    </radialGradient>
    <linearGradient id="face" x1="45" y1="21" x2="107" y2="67" gradientUnits="userSpaceOnUse">
      <stop offset="0.07" stop-color="#FF76A5"/>
      <stop offset="0.55" stop-color="#7D5CFF"/>
      <stop offset="1" stop-color="#1F6DF7"/>
    </linearGradient>
    <linearGradient id="neck" x1="59" y1="61" x2="94" y2="76" gradientUnits="userSpaceOnUse">
      <stop offset="0.1" stop-color="#4438FF" stop-opacity="0.7"/>
      <stop offset="0.8" stop-color="#0F5BE6" stop-opacity="0.4"/>
    </linearGradient>
  </defs>
  <rect x="7" y="8" width="136" height="72" rx="36" fill="url(#bg-glow)"/>
  <rect x="33" y="11" width="84" height="66" rx="12" fill="#040612" stroke="#0A0F2C" stroke-width="2"/>
  <rect x="37" y="15" width="76" height="58" rx="10" fill="url(#chip)"/>
  <path d="M86.2 62.5C84.4 57.2 78.9 54.4 75 54.4C71.1 54.4 65.6 57.2 63.8 62.5C63.5 63.4 62.7 64 61.8 64H51.2C49.4 64 48 65.5 48 67.3V70H102V67.3C102 65.5 100.6 64 98.8 64H88.2C87.3 64 86.5 63.4 86.2 62.5Z" fill="url(#neck)" opacity="0.8"/>
  <path d="M75 24C63.4 24 54 33.4 54 45C54 56.6 63.4 66 75 66C86.6 66 96 56.6 96 45C96 33.4 86.6 24 75 24Z" fill="url(#face)"/>
  <path d="M64 41.5C64 39.6 65.6 38 67.5 38C69.4 38 71 39.6 71 41.5C71 43.4 69.4 45 67.5 45C65.6 45 64 43.4 64 41.5Z" fill="#0A0F2C" opacity="0.85"/>
  <path d="M79 41.5C79 39.6 80.6 38 82.5 38C84.4 38 86 39.6 86 41.5C86 43.4 84.4 45 82.5 45C80.6 45 79 43.4 79 41.5Z" fill="#0A0F2C" opacity="0.85"/>
  <path d="M67.3 38.5C66.9 37.1 65.5 36.1 63.9 36.1C62 36.1 60.5 37.6 60.5 39.5C60.5 40 60.9 40.4 61.4 40.4H69C69.6 40.4 70 39.8 69.8 39.2C69.4 38.2 68.4 37.3 67.3 38.5Z" fill="#2F1154" opacity="0.6"/>
  <path d="M87.7 38.5C87.3 37.1 85.9 36.1 84.3 36.1C82.4 36.1 80.9 37.6 80.9 39.5C80.9 40 81.3 40.4 81.8 40.4H89.4C90 40.4 90.4 39.8 90.2 39.2C89.8 38.2 88.8 37.3 87.7 38.5Z" fill="#11235F" opacity="0.55"/>
  <path d="M65.5 47.8C69.9 51.8 80.2 52.2 84.6 47.8" stroke="#0E1738" stroke-width="3" stroke-linecap="round"/>
  <path d="M57.6 44.1C57.6 44.1 59.2 28.6 75 28.6C90.8 28.6 92.4 44.1 92.4 44.1" stroke="#22153F" stroke-width="4" stroke-linecap="round" opacity="0.6"/>
  <rect x="60" y="46.5" width="30" height="11" rx="5.5" stroke="#151A37" stroke-width="3" fill="none" opacity="0.85"/>
  <path d="M59 53C59 53 61.5 58.5 75 58.5C88.5 58.5 91 53 91 53" stroke="#58A7FF" stroke-width="1.4" stroke-linecap="round" opacity="0.6"/>
  <path d="M52.2 43.4C52.2 42.6 52.7 41.9 53.4 41.6C57.2 40 63.8 37.7 75 37.7C86.2 37.7 92.8 40 96.6 41.6C97.3 41.9 97.8 42.6 97.8 43.4V45.5C97.8 46.2 97.3 46.9 96.6 47.2C92.8 48.9 86.2 51.1 75 51.1C63.8 51.1 57.2 48.9 53.4 47.2C52.7 46.9 52.2 46.2 52.2 45.5V43.4Z" fill="#050916" opacity="0.45"/>
  <path d="M56.4 51.7L54.9 49.3C54.5 48.6 54.6 47.7 55.2 47.2L59.1 43.9" stroke="#424EA6" stroke-width="2" stroke-linecap="round"/>
  <path d="M93.6 51.7L95.1 49.3C95.5 48.6 95.4 47.7 94.8 47.2L90.9 43.9" stroke="#424EA6" stroke-width="2" stroke-linecap="round"/>
  <path d="M63.3 43.5H86.7" stroke="#111937" stroke-width="3" stroke-linecap="round"/>
  <path d="M60 30C60 30 65 23 75 23C85 23 90 30 90 30" stroke="#1B1042" stroke-width="5" stroke-linecap="round" opacity="0.7"/>
</svg>
